<?xml version="1.0" encoding="utf-8"?>
<!-- Generator: Adobe Illustrator 27.2.0, SVG Export Plug-In . SVG Version: 6.00 Build 0)  -->
<svg version="1.1" id="Layer_1" xmlns="http://www.w3.org/2000/svg" xmlns:xlink="http://www.w3.org/1999/xlink" x="0px" y="0px"
	 viewBox="0 0 792 612" style="enable-background:new 0 0 792 612;" xml:space="preserve">
<style type="text/css">
	.st0{fill:#F6D58E;}
	.st1{fill:#C75528;}
	.st2{fill:#DC8A27;}
	.st3{fill:#2D8382;}
	.st4{fill:#9CAFB1;}
	.st5{fill:#6AABDD;}
	.st6{fill:#097AB5;}
	.st7{fill:none;stroke:#231F20;stroke-miterlimit:10;}
	.st8{fill:#231F20;}
	.st9{fill:#FFFFFF;}
	.st10{font-family:'ProximaNova-Medium';}
	.st11{font-size:15.1569px;}
	.st12{font-size:13.09px;}
	.st13{font-size:14.2568px;}
	.st14{font-family:'ProximaNova-Bold';}
	.st15{font-size:20.6685px;}
	.st16{font-size:19.2906px;}
	.st17{font-size:17.7917px;}
	.st18{font-family:'ProximaNova-RegularIt';}
	.st19{font-size:13.779px;}
</style>
<circle class="st0" cx="4823.3" cy="544.7" r="113.6"/>
<circle class="st1" cx="5001.5" cy="510" r="61.2"/>
<circle class="st2" cx="4868.9" cy="529.1" r="55.9"/>
<circle class="st3" cx="4762.3" cy="522.4" r="46.5"/>
<circle class="st4" cx="4787.1" cy="607" r="39.9"/>
<circle class="st5" cx="4860.1" cy="616.5" r="30.8"/>
<circle class="st6" cx="4904.1" cy="594.5" r="16.3"/>
<text transform="matrix(1 0 0 1 4822.106 525.7314)"><tspan x="0" y="0" class="st9 st10" style="font-size:11px;">Have Deaf or Hard </tspan><tspan x="5.9" y="11.3" class="st9 st10" style="font-size:11px;">of Hearing Child </tspan><tspan x="8.9" y="22.6" class="st9 st10" style="font-size:11px;">with Disabilities</tspan></text>
<text transform="matrix(1 0 0 1 4723.1279 517.9629)"><tspan x="0" y="0" class="st9 st10" style="font-size:9.5px;">Have Deaf or Hard</tspan><tspan x="-5.1" y="9.4" class="st9 st10" style="font-size:9.5px;">of Hearing Child who</tspan><tspan x="-0.4" y="18.8" class="st9 st10" style="font-size:9.5px;">is Lower Achiveing</tspan><tspan x="11.3" y="28.2" class="st9 st10" style="font-size:9.5px;">Academically</tspan></text>
<text transform="matrix(1 0 0 1 4769.9907 607.7358)"><tspan x="0" y="0" class="st9 st10" style="font-size:11px;">Live in </tspan><tspan x="-16.6" y="11.3" class="st9 st10" style="font-size:11px;">Rural Settings</tspan></text>
<text transform="matrix(1 0 0 1 4911.0591 633.8403)"><tspan x="0" y="0" class="st8 st10" style="font-size:10.3468px;">Speak a Language </tspan><tspan x="0.1" y="10.3" class="st8 st10" style="font-size:10.3468px;">Other Than English</tspan></text>
<text transform="matrix(1 0 0 1 4946.8071 602.9097)"><tspan x="0" y="0" class="st8 st10" style="font-size:10.3468px;">Member of Racial or </tspan><tspan x="-8.9" y="10.3" class="st8 st10" style="font-size:10.3468px;">Ethnically Diverse Group</tspan></text>
<text transform="matrix(1 0 0 1 4940.2344 446.9927)" class="st8 st14" style="font-size:15px;">35%</text>
<text transform="matrix(1 0 0 1 4708.2896 447.1597)" class="st8 st14" style="font-size:15px;">65%</text>
<g>
	<text transform="matrix(1 0 0 1 4784.855 454.3212)"><tspan x="0" y="0" class="st8 st10" style="font-size:11px;">Member of the </tspan><tspan x="-3.3" y="12.2" class="st8 st10" style="font-size:11px;">Following TUGs*</tspan></text>
</g>
<text transform="matrix(1 0 0 1 4860.293 501.5254)" class="st9 st14" style="font-size:14px;">90</text>
<text transform="matrix(1 0 0 1 4754.2905 501.6172)" class="st9 st14" style="font-size:14px;">72</text>
<text transform="matrix(1 0 0 1 4778.7363 588.5698)" class="st9 st14" style="font-size:14px;">63</text>
<text transform="matrix(1 0 0 1 4852.1509 620.8406)" class="st8 st14" style="font-size:12.9122px;">50</text>
<text transform="matrix(1 0 0 1 4896.0039 599.5975)" class="st9 st14" style="font-size:14px;">26</text>
<text transform="matrix(1 0 0 1 4990.563 480.3325)" class="st9 st14" style="font-size:14px;">100</text>
<g>
	<g>
		<polyline class="st7" points="4918.1,606.3 4936.9,616.7 5050.6,616.7 		"/>
		<g>
			<polygon class="st8" points="4920.8,610.5 4921.4,610 4918.1,606.3 4923,607.1 4923.1,606.3 4916.2,605.3 			"/>
		</g>
	</g>
</g>
<g>
	<g>
		<polyline class="st7" points="4885.4,637.1 4904.3,647.4 4998.6,647.4 		"/>
		<g>
			<polygon class="st8" points="4888.2,641.3 4888.7,640.8 4885.5,637.1 4890.3,637.9 4890.5,637.1 4883.6,636.1 			"/>
		</g>
	</g>
</g>
<text transform="matrix(1 0 0 1 4600.1489 639.6139)"><tspan x="0" y="0" class="st8 st18" style="font-size:10px;">* Some parents/caregivers </tspan><tspan x="0" y="12" class="st8 st18" style="font-size:10px;">self-identified more than one TUG</tspan></text>
<text transform="matrix(1 0 0 1 4950.7603 508.5312)"><tspan x="0" y="0" class="st9 st10" style="font-size:11px;">Not a Member of any </tspan><tspan x="23.5" y="12.2" class="st9 st10" style="font-size:11px;">of the TUGs</tspan></text>
<circle class="st0" cx="369.9" cy="310.8" r="156.6"/>
<circle class="st1" cx="615.4" cy="263" r="84.3"/>
<circle class="st2" cx="432.7" cy="289.2" r="77"/>
<circle class="st3" cx="285.9" cy="280" r="64.1"/>
<circle class="st4" cx="320" cy="396.6" r="55"/>
<circle class="st5" cx="420.6" cy="409.7" r="42.5"/>
<circle class="st6" cx="481.2" cy="379.3" r="22.5"/>
<text transform="matrix(1 0 0 1 368.2513 284.6402)"><tspan x="0" y="0" class="st9 st10 st11">Have Deaf or Hard </tspan><tspan x="8.1" y="15.6" class="st9 st10 st11">of Hearing Child </tspan><tspan x="12.3" y="31.1" class="st9 st10 st11">with Disabilities</tspan></text>
<text transform="matrix(1 0 0 1 231.8719 273.9351)"><tspan x="0" y="0" class="st9 st10 st12">Have Deaf or Hard</tspan><tspan x="-7" y="13" class="st9 st10 st12">of Hearing Child who</tspan><tspan x="-0.5" y="25.9" class="st9 st10 st12">is Lower Achiveing</tspan><tspan x="15.5" y="38.9" class="st9 st10 st12">Academically</tspan></text>
<text transform="matrix(1 0 0 1 296.4427 397.6343)"><tspan x="0" y="0" class="st9 st10 st11">Live in </tspan><tspan x="-22.9" y="15.6" class="st9 st10 st11">Rural Settings</tspan></text>
<text transform="matrix(1 0 0 1 490.8216 433.6031)"><tspan x="0" y="0" class="st8 st10 st13">Speak a Language </tspan><tspan x="0.2" y="14.3" class="st8 st10 st13">Other Than English</tspan></text>
<text transform="matrix(1 0 0 1 540.0775 390.9839)"><tspan x="0" y="0" class="st8 st10 st13">Member of Racial or </tspan><tspan x="-12.3" y="14.3" class="st8 st10 st13">Ethnically Diverse Group</tspan></text>
<text transform="matrix(1 0 0 1 531.0218 176.146)" class="st8 st14 st15">35%</text>
<text transform="matrix(1 0 0 1 211.4246 176.3765)" class="st8 st14 st15">65%</text>
<g>
	<text transform="matrix(1 0 0 1 316.9241 186.2427)"><tspan x="0" y="0" class="st8 st10 st11">Member of the </tspan><tspan x="-4.5" y="16.8" class="st8 st10 st11">Following TUGs*</tspan></text>
</g>
<text transform="matrix(1 0 0 1 420.8694 251.2867)" class="st9 st14 st16">90</text>
<text transform="matrix(1 0 0 1 274.8094 251.4126)" class="st9 st14 st16">72</text>
<text transform="matrix(1 0 0 1 308.4944 371.2252)" class="st9 st14 st16">63</text>
<text transform="matrix(1 0 0 1 409.6507 415.691)" class="st8 st14 st17">50</text>
<text transform="matrix(1 0 0 1 470.0765 386.4195)" class="st9 st14 st16">26</text>
<text transform="matrix(1 0 0 1 600.3694 222.0855)" class="st9 st14 st16">100</text>
<g>
	<g>
		<polyline class="st7" points="499.8,395.3 526.4,409.9 683,409.9 		"/>
		<g>
			<polygon class="st8" points="502.5,399.5 503.1,399 499.8,395.3 504.7,396.1 504.8,395.3 497.9,394.3 			"/>
		</g>
	</g>
</g>
<g>
	<g>
		<polyline class="st7" points="454.8,437.7 481.4,452.3 611.4,452.3 		"/>
		<g>
			<polygon class="st8" points="457.5,441.9 458.1,441.4 454.9,437.7 459.7,438.5 459.8,437.7 452.9,436.7 			"/>
		</g>
	</g>
</g>
<text transform="matrix(1 0 0 1 62.4178 441.5591)"><tspan x="0" y="0" class="st8 st18 st19">* Some parents/caregivers </tspan><tspan x="0" y="16.5" class="st8 st18 st19">self-identified more than one TUG</tspan></text>
<text transform="matrix(1 0 0 1 545.5247 260.94)"><tspan x="0" y="0" class="st9 st10 st11">Not a Member of any </tspan><tspan x="32.4" y="16.8" class="st9 st10 st11">of the TUGs</tspan></text>
</svg>
